<?xml version="1.0" standalone="no"?>
<!DOCTYPE svg PUBLIC "-//W3C//DTD SVG 20010904//EN"
 "http://www.w3.org/TR/2001/REC-SVG-20010904/DTD/svg10.dtd">
<svg version="1.0" xmlns="http://www.w3.org/2000/svg"
 width="512.000000pt" height="512.000000pt" viewBox="0 0 512.000000 512.000000"
 preserveAspectRatio="xMidYMid meet">
<metadata>
Created by potrace 1.11, written by Peter Selinger 2001-2013
</metadata>
<g transform="translate(0.000000,512.000000) scale(0.100000,-0.100000)"
fill="#000000" stroke="none">
<path d="M565 4676 c-60 -28 -97 -66 -124 -126 -20 -45 -21 -55 -21 -1990 l0
-1945 24 -50 c28 -60 66 -97 126 -124 45 -20 55 -21 1990 -21 l1945 0 50 24
c60 28 97 66 124 126 20 45 21 55 21 1990 0 1935 -1 1945 -21 1990 -27 60 -64
98 -124 126 l-50 24 -1945 0 -1945 0 -50 -24z m674 -1642 c49 -35 51 -51 51
-524 0 -354 -3 -447 -14 -474 -38 -90 -162 -90 -197 1 -13 35 -12 914 2 950 5
15 20 36 32 45 28 22 95 23 126 2z m452 -13 l29 -29 0 -416 0 -416 236 0 c239
0 264 -3 291 -39 22 -29 15 -80 -14 -107 l-27 -25 -323 3 c-320 3 -323 3 -345
26 l-23 23 0 480 0 481 28 24 c42 36 109 34 148 -5z m1214 -294 c78 -36 146
-104 182 -181 26 -56 28 -70 28 -181 0 -111 -2 -125 -28 -180 -70 -150 -197
-221 -382 -213 -79 3 -101 8 -158 36 -143 71 -218 218 -203 399 14 171 103
287 261 340 25 8 77 12 140 10 84 -2 109 -7 160 -30z m758 17 c25 -8 66 -34
91 -56 41 -35 46 -37 46 -18 0 29 26 76 45 84 25 9 84 7 105 -4 35 -19 40 -75
40 -421 0 -355 -6 -422 -45 -499 -30 -59 -57 -83 -130 -116 -53 -25 -75 -29
-182 -32 -103 -4 -132 -1 -190 17 -116 35 -193 106 -193 179 0 46 38 82 85 82
37 0 38 -1 117 -88 48 -53 119 -72 205 -52 97 21 133 83 133 227 l0 56 -43
-40 c-62 -57 -118 -76 -214 -71 -95 5 -141 25 -205 90 -54 55 -84 125 -98 232
-12 85 0 197 29 262 35 77 116 152 191 175 45 13 165 10 213 -7z"/>
<path d="M2672 2607 c-43 -13 -98 -76 -114 -129 -18 -63 -16 -185 5 -239 49
-129 199 -167 290 -74 89 91 90 308 2 398 -50 52 -113 67 -183 44z"/>
<path d="M3554 2610 c-41 -13 -100 -78 -113 -127 -6 -21 -11 -74 -11 -119 0
-129 51 -208 147 -229 79 -16 175 47 201 132 15 49 16 155 2 204 -30 106 -130
168 -226 139z"/>
</g>
</svg>
